<?xml version="1.0" standalone="no"?>
<!DOCTYPE svg PUBLIC "-//W3C//DTD SVG 20010904//EN"
 "http://www.w3.org/TR/2001/REC-SVG-20010904/DTD/svg10.dtd">
<svg version="1.0" xmlns="http://www.w3.org/2000/svg"
 width="100" height="100" viewBox="0 0 512.000000 512.000000"
 preserveAspectRatio="xMidYMid meet">

<g transform="translate(0.000000,512.000000) scale(0.100000,-0.100000)"
fill="#1C1C1E" stroke="none">
<path d="M223 5071 c-79 -38 -146 -105 -184 -184 l-29 -62 0 -2268 0 -2268 26
-55 c34 -73 115 -153 189 -190 l60 -29 785 -6 c432 -4 1448 -5 2259 -2 1428 4
1476 5 1526 24 112 42 181 106 233 216 l27 58 0 2255 0 2255 -32 67 c-39 84
-105 150 -186 189 l-62 29 -2275 0 -2275 0 -62 -29z m2450 -530 c66 -32 130
-100 169 -179 28 -57 34 -79 37 -156 4 -109 -11 -209 -50 -324 -24 -74 -26
-83 -9 -62 23 29 23 27 9 -59 -12 -69 -39 -137 -84 -208 -14 -24 -21 -43 -16
-43 6 0 11 3 11 8 0 4 12 21 25 37 l26 30 -20 -41 c-11 -22 -61 -80 -113 -128
-122 -116 -151 -127 -207 -80 -41 34 -40 49 2 24 42 -26 70 -25 119 2 40 23
86 92 69 102 -5 3 -30 2 -55 -3 -25 -5 -46 -7 -46 -5 0 2 17 11 37 19 42 18
70 41 85 70 11 20 11 20 -10 1 -21 -18 -21 -18 -27 7 -13 51 -2 81 33 93 27 8
42 25 73 78 42 73 45 81 27 69 -7 -4 -18 -8 -24 -9 -6 -1 -40 -20 -76 -43 -73
-46 -83 -48 -111 -24 -18 17 -19 17 -32 0 -10 -14 -14 -15 -18 -3 -4 11 -13
12 -44 3 -54 -14 -80 -5 -136 50 -39 37 -51 43 -58 32 -12 -19 -13 -17 24 -83
26 -46 40 -61 67 -70 34 -11 35 -13 38 -64 l3 -53 -28 18 -28 18 23 -32 c12
-17 42 -41 67 -53 25 -12 45 -23 45 -25 0 -1 -20 1 -45 6 -25 5 -51 6 -58 3
-26 -10 -66 37 -113 132 -41 83 -48 105 -51 172 -3 60 -2 74 7 62 9 -12 10 -9
5 13 -33 154 -37 186 -33 306 5 144 22 202 86 286 40 53 114 109 166 125 57
17 186 7 239 -19z m272 -440 c-4 -14 -13 -64 -20 -110 -8 -46 -19 -89 -24 -94
-17 -17 -14 44 4 86 17 42 20 71 5 62 -13 -8 -13 -7 6 48 16 48 41 55 29 8z
m127 -197 c55 -14 129 -38 163 -53 110 -50 196 -148 211 -238 6 -40 5 -43 -22
-53 -19 -8 -30 -8 -32 -1 -2 5 -9 8 -15 5 -7 -2 -39 -8 -72 -12 l-60 -8 28
-18 c52 -35 123 -47 193 -34 57 10 66 9 105 -11 l44 -21 -34 29 c-18 16 -49
32 -69 36 -32 6 -34 8 -18 17 10 6 43 8 72 6 30 -3 54 -1 54 3 0 11 -26 18
-86 25 -40 5 -58 12 -65 26 -19 35 4 43 124 43 129 0 177 -16 240 -79 36 -35
115 -176 100 -176 -5 1 -33 21 -63 45 -30 24 -56 42 -58 40 -3 -2 25 -36 60
-74 67 -72 128 -179 128 -223 0 -71 -55 -158 -117 -184 -43 -18 -154 -18 -227
1 -33 9 -60 14 -62 12 -2 -2 14 -14 37 -26 22 -13 38 -25 35 -28 -11 -12 -155
30 -213 61 -58 31 -78 35 -54 11 6 -6 13 -41 17 -78 l7 -68 -32 -12 c-40 -15
-41 -31 -1 -22 17 4 30 4 30 0 0 -3 -14 -26 -30 -50 -119 -173 -448 -268 -631
-183 -64 30 -124 81 -164 138 -29 42 -29 44 -29 184 0 77 3 154 7 169 6 22 5
27 -5 20 -7 -4 -17 -8 -23 -8 -6 0 -9 -63 -6 -175 l4 -176 -72 -60 c-222 -189
-447 -177 -671 35 -59 55 -58 71 3 71 38 0 34 16 -8 30 -55 18 -75 52 -75 127
0 58 -2 64 -17 58 -100 -40 -213 -69 -213 -54 0 5 14 16 31 24 45 24 30 27
-42 10 -182 -43 -305 4 -338 130 -21 80 15 156 136 286 43 46 71 79 63 73 -8
-6 -43 -32 -78 -58 -34 -26 -62 -45 -62 -41 0 16 64 129 91 159 17 20 61 50
97 68 54 27 81 34 145 37 85 3 147 -5 147 -19 0 -20 -41 -50 -69 -50 -32 0
-91 -18 -91 -28 0 -4 32 -5 71 -4 43 2 76 -1 82 -7 8 -8 6 -11 -8 -11 -34 0
-119 -46 -154 -84 -19 -20 -30 -36 -25 -36 6 0 21 11 33 24 13 13 46 34 74 46
42 19 62 21 116 16 67 -7 171 14 171 33 0 12 -123 19 -132 7 -3 -5 -20 5 -37
22 -31 31 -31 32 -17 67 9 20 25 48 36 62 29 38 158 132 215 158 58 27 157 50
178 42 31 -12 52 -303 24 -341 -9 -12 -31 -20 -64 -23 l-51 -5 5 -33 c3 -19 0
-35 -6 -39 -6 -4 -11 -12 -11 -18 0 -6 8 -4 18 5 26 24 39 21 17 -3 -30 -33
-7 -23 56 25 56 44 60 45 86 31 16 -7 73 -65 129 -127 97 -110 214 -206 235
-193 5 3 27 28 49 55 23 29 40 44 44 36 3 -7 24 9 55 43 48 52 65 80 40 64 -7
-4 -10 -1 -7 6 2 7 30 34 62 59 57 45 60 46 130 46 70 0 73 -1 171 -62 89 -55
103 -68 130 -118 16 -30 32 -55 36 -55 3 0 6 17 7 38 1 29 9 44 37 70 42 38
44 45 9 32 -14 -6 -49 -10 -79 -10 -43 0 -59 5 -84 26 -47 40 -54 58 -36 99
13 34 13 36 -3 31 -9 -2 -36 -10 -59 -17 -33 -9 -55 -9 -102 1 -33 7 -71 10
-85 6 -33 -8 -33 -2 4 76 24 50 30 77 30 128 0 77 16 114 26 63 12 -60 24 -34
24 52 0 47 3 85 6 85 3 0 51 -11 106 -26z m-526 -273 c10 8 18 3 34 -23 21
-35 25 -56 12 -74 -11 -17 -68 -44 -92 -44 -20 0 -100 36 -100 45 0 3 7 23 16
45 11 27 21 39 30 36 8 -3 14 1 14 11 0 9 8 25 17 35 16 18 17 18 36 -12 15
-24 22 -28 33 -19z m34 -212 c9 -5 -19 -9 -72 -9 -93 0 -130 16 -51 23 54 4
101 -1 123 -14z m-1482 -151 c-29 -77 -22 -163 17 -212 67 -83 75 -98 76 -145
l0 -46 17 25 c35 51 50 60 102 60 55 0 58 -4 33 -33 -17 -20 -17 -20 2 -12 86
35 205 -9 205 -77 0 -82 -145 -275 -260 -345 -19 -12 -58 -29 -86 -38 -43 -14
-59 -14 -95 -5 -41 11 -98 58 -126 105 -26 44 -13 -45 23 -152 62 -184 63
-361 3 -394 -22 -11 -72 10 -88 38 -5 10 -12 15 -16 12 -3 -4 8 -29 25 -55 45
-72 50 -105 48 -291 -1 -92 1 -188 6 -211 8 -42 7 -43 -13 -33 -35 19 -24 -2
16 -29 38 -26 168 -80 193 -80 39 0 56 -28 69 -109 11 -64 11 -84 1 -96 -16
-19 -30 -10 -30 20 0 13 -4 27 -10 30 -16 10 -11 -58 5 -79 20 -27 20 -95 0
-103 -9 -3 -24 2 -34 11 -25 23 -31 20 -31 -13 0 -40 -23 -45 -56 -10 -33 35
-41 32 -20 -8 21 -42 7 -59 -33 -39 -31 17 -41 10 -19 -12 9 -9 6 -12 -13 -12
-34 0 -104 47 -163 111 l-49 52 6 130 c6 111 4 127 -7 112 -13 -18 -14 -18
-20 2 -4 11 -7 47 -8 79 -1 33 -5 69 -9 82 -5 13 -5 22 2 22 5 0 12 -7 15 -15
4 -8 10 -15 14 -15 5 0 -12 46 -37 103 -99 223 -132 347 -139 537 -4 91 -2
154 4 170 10 23 11 22 11 -17 1 -23 5 -44 10 -47 5 -4 11 55 13 137 l3 143 58
115 c31 63 89 157 127 209 39 52 70 97 70 99 0 19 -147 -146 -237 -265 -18
-24 -14 -6 21 101 76 227 136 333 247 427 41 35 164 118 176 118 0 0 -8 -24
-19 -52z m2993 -13 c85 -57 167 -146 216 -233 34 -61 156 -390 135 -367 -5 6
-38 48 -74 95 -63 81 -168 192 -168 177 0 -4 29 -46 65 -94 36 -49 91 -139
122 -202 l58 -115 3 -149 c3 -93 7 -145 13 -136 5 8 9 31 9 52 0 26 4 36 11
31 17 -10 4 -312 -16 -389 -29 -108 -67 -218 -116 -327 -26 -60 -43 -108 -38
-108 5 0 12 7 15 15 4 8 10 15 15 15 5 0 4 -11 -1 -25 -5 -13 -9 -37 -9 -52 0
-42 -2 -65 -8 -96 -4 -22 -8 -26 -18 -17 -11 9 -12 -12 -8 -114 l6 -124 -49
-52 c-82 -88 -186 -143 -169 -89 7 21 7 21 -24 3 -27 -16 -33 -17 -41 -4 -5 9
-3 24 6 43 21 40 13 43 -20 8 -33 -35 -56 -30 -56 10 0 33 -6 36 -31 13 -10
-9 -25 -14 -34 -11 -20 8 -20 76 0 103 8 10 14 39 14 64 0 34 -2 40 -9 25 -5
-11 -9 -32 -9 -47 -1 -31 -12 -36 -31 -13 -11 13 -11 29 0 88 15 90 22 103 57
111 55 13 169 60 206 84 39 26 52 51 16 31 -20 -10 -21 -9 -13 33 5 23 8 119
6 211 -3 184 3 219 48 290 36 57 38 68 8 40 -91 -83 -134 -28 -126 157 4 75
13 117 41 202 36 105 51 198 24 153 -28 -47 -85 -94 -126 -105 -123 -33 -316
113 -420 318 -43 84 -10 140 88 150 38 3 60 0 91 -17 39 -20 54 -15 25 9 -28
24 -16 33 37 28 45 -5 56 -10 85 -44 l33 -39 0 46 c0 37 7 57 35 95 60 84 75
119 75 177 0 39 -7 68 -25 102 -31 57 -24 56 76 -10z m-679 -498 c-29 -46
-138 -148 -193 -180 -141 -83 -333 -91 -428 -18 -21 16 -15 16 45 -5 119 -40
233 -27 364 42 74 39 163 113 200 167 31 45 40 40 12 -6z m-1607 -90 c53 -50
140 -103 212 -128 82 -30 217 -30 293 -1 51 20 53 20 30 2 -46 -35 -125 -53
-216 -48 -73 4 -94 9 -170 47 -93 46 -202 143 -237 211 l-18 35 33 -40 c18
-22 51 -57 73 -78z m791 -8 c16 -17 45 -39 64 -49 29 -15 32 -20 18 -25 -28
-11 -21 -25 13 -25 36 0 94 -32 109 -60 14 -26 14 -27 -22 -34 -43 -8 -32 -15
43 -25 35 -5 84 -16 109 -25 25 -8 78 -20 118 -26 63 -10 75 -15 82 -36 30
-79 -86 -128 -332 -141 l-126 -6 -26 28 c-14 15 -28 44 -32 64 -12 66 -21 68
-38 7 -14 -48 -22 -59 -52 -73 -31 -15 -52 -16 -210 -5 -167 10 -176 12 -207
38 -45 37 -49 49 -33 87 17 41 51 67 86 67 41 -1 280 44 280 52 0 5 -10 8 -22
8 -42 0 -49 12 -30 50 16 32 21 35 70 38 53 3 75 22 25 22 -27 0 -26 1 22 50
27 28 52 50 55 50 4 0 19 -14 36 -31z m984 -42 c0 -23 -121 -124 -195 -165
l-77 -41 -45 18 c-36 14 -53 16 -83 8 -20 -6 -45 -7 -55 -4 -27 11 -2 33 46
41 34 5 165 52 179 63 2 2 -2 8 -9 12 -18 12 85 70 141 79 52 9 98 4 98 -11z
m-1811 -43 c69 -34 84 -48 59 -56 -14 -5 101 -52 152 -63 85 -18 73 -49 -15
-40 -56 6 -65 5 -84 -14 -28 -28 -41 -27 -109 8 -75 39 -193 165 -177 191 14
23 101 11 174 -26z m1988 -101 c60 -59 110 -90 190 -119 63 -23 65 -24 26 -20
-52 5 -159 54 -212 97 -40 32 -111 128 -111 151 0 7 14 -5 32 -27 17 -22 51
-59 75 -82z m-2343 40 c-21 -31 -65 -76 -96 -99 -59 -43 -174 -89 -205 -81
-11 2 0 8 27 16 123 33 195 81 262 173 54 74 64 66 12 -9z m1863 -140 c-4 -3
-2 -12 4 -19 11 -13 -27 -47 -88 -78 -41 -21 -46 -20 -33 3 5 11 10 35 10 54
0 18 3 37 7 40 3 4 29 7 56 7 28 0 47 -3 44 -7z m-1273 -9 c9 -3 21 -25 27
-47 6 -23 20 -54 31 -70 l20 -28 -29 7 c-48 11 -107 40 -127 63 -11 11 -26 21
-34 21 -11 0 -7 9 13 30 28 29 63 38 99 24z m20 -191 c16 -15 27 -39 32 -69 4
-30 9 -41 15 -33 18 30 21 -26 5 -95 -9 -39 -16 -89 -16 -111 1 -59 41 -164
94 -243 25 -38 46 -73 46 -77 0 -4 -19 -5 -41 -2 -35 5 -54 17 -111 74 -99 98
-174 191 -203 255 -41 89 -47 199 -10 168 19 -15 19 -6 4 74 -8 47 -7 66 6
107 l17 49 69 -37 c37 -20 79 -47 93 -60z m1247 52 c15 -69 9 -131 -16 -179
-29 -55 -31 -63 -10 -46 25 21 29 4 16 -70 -26 -143 -110 -257 -271 -366 -92
-62 -138 -80 -157 -61 -12 11 -5 23 42 73 103 109 147 191 175 329 17 83 47
133 95 158 l40 21 -35 6 c-33 5 -35 7 -32 39 3 40 17 61 67 101 48 38 77 36
86 -5z m-731 -38 c38 -18 47 -57 27 -120 -10 -30 -28 -70 -40 -88 -22 -33 -25
-34 -88 -33 -66 1 -213 27 -252 45 -67 30 -94 144 -46 195 l24 26 175 -7 c96
-4 186 -12 200 -18z m426 2 c32 -6 70 -17 83 -26 20 -13 23 -21 18 -60 -8 -75
-29 -93 -158 -137 -63 -21 -142 -41 -175 -44 l-61 -5 -30 44 c-58 86 -66 173
-18 205 49 32 227 44 341 23z m-1876 -290 c-17 -51 -36 -126 -43 -168 l-12
-76 -3 68 c-2 52 6 102 33 210 19 78 38 165 42 192 7 46 8 42 11 -42 2 -81 -1
-104 -28 -184z m2955 11 c35 -147 42 -200 26 -200 -7 0 -16 36 -23 95 0 6 -12
39 -25 74 -16 44 -26 93 -28 150 -5 100 -2 93 50 -119z m-1455 55 c0 -8 8 -18
18 -24 16 -9 16 -11 -3 -25 -13 -9 -25 -11 -36 -5 -15 7 -16 14 -7 43 11 34
28 40 28 11z m-370 -10 c24 -8 99 -22 169 -31 122 -16 127 -18 164 -53 l37
-35 25 26 c20 22 36 28 92 33 37 4 106 17 153 31 99 28 138 30 147 8 9 -24
-24 -130 -64 -206 -64 -123 -169 -189 -329 -210 -115 -14 -137 -32 -29 -23 44
4 103 11 130 15 28 4 52 6 54 4 8 -7 -95 -46 -159 -60 -120 -25 -232 -10 -317
44 -46 29 -55 43 -23 35 13 -4 0 16 -37 54 -105 107 -167 271 -133 353 10 25
18 30 45 30 18 0 52 -7 75 -15z m-285 -445 l66 -55 -5 -75 c-15 -202 -18 -275
-13 -270 3 3 13 50 22 105 17 104 48 185 69 185 14 0 137 -125 178 -180 14
-19 29 -46 33 -60 13 -43 102 -184 165 -261 50 -61 60 -80 60 -111 l0 -38
-525 0 -525 0 6 28 c4 15 26 82 51 150 102 286 295 650 339 640 7 -2 43 -28
79 -58z m1273 40 c61 -66 217 -385 317 -652 l54 -143 -245 -3 c-134 -1 -354
-1 -488 0 l-243 3 54 135 c31 74 66 150 79 169 13 20 24 42 24 49 0 7 7 27 16
45 23 43 175 247 185 247 18 0 50 -84 65 -172 9 -51 18 -95 20 -97 7 -7 4 98
-6 209 l-10 105 68 62 c37 35 72 63 79 63 7 0 21 -9 31 -20z"/>
<path d="M1760 3405 c0 -2 17 -13 38 -24 20 -10 45 -28 56 -40 l18 -20 39 32
c21 18 39 34 39 37 0 3 -24 5 -52 5 -29 0 -72 3 -95 8 -24 4 -43 5 -43 2z"/>
</g>
</svg>
